<svg width="1000" height="500" viewBox="0 0 1000 500" fill="none" xmlns="http://www.w3.org/2000/svg">
<path fill-rule="evenodd" clip-rule="evenodd" d="M86.1734 173.446C101.151 156.298 123.266 148.052 145.818 150.905C168.976 153.832 190.46 165.368 214.128 165.198C236.68 165.029 257.096 153.663 279.527 152.26H279.502C279.769 152.236 280.012 152.211 280.279 152.211C301.471 151.099 323.052 157.049 337.35 173.422C419.037 266.995 251.343 369.612 217.551 388.888C213.934 390.944 209.614 390.944 205.997 388.888C172.205 369.612 4.51095 266.994 86.1734 173.446ZM254.126 197.221C239.926 196.229 227.424 204.984 217.204 213.787C215.553 215.214 213.587 216.496 211.402 216.569C208.877 216.641 206.571 215.094 204.775 213.304C196.06 204.67 186.908 198.55 174.285 197.462C162.972 196.495 151.296 199.833 142.776 207.451C125.225 223.172 126.292 251.105 138.551 269.655C145.057 279.499 153.481 288.278 161.467 296.912C170.571 306.731 179.941 316.333 189.7 325.499C195.04 330.53 200.6 335.342 206.232 340.01C214.364 346.709 225.773 333.602 231.284 328.74C239.319 321.654 246.917 314.132 254.079 306.175C264.711 294.349 275.926 282.933 284.713 269.631L284.69 269.655C295.492 253.282 298.187 230.645 286.049 214.247C278.573 204.138 266.604 198.092 254.126 197.221Z" fill="white"/>
<path d="M301.107 97.6997C253.988 93.9752 231.096 91.8469 210.875 142.394C210.341 143.724 210.996 145.804 212.453 145.853C271.952 148.61 256.197 124.255 301.956 102.464C304.287 101.352 303.704 97.8932 301.107 97.6997Z" fill="#FA9E13"/>
<path d="M815.433 101.555V255.767C815.433 258.287 813.372 260.341 810.842 260.341H794.007C791.478 260.341 789.416 258.287 789.416 255.767V101.555C789.416 99.0351 791.478 96.981 794.007 96.981H810.842C813.372 96.981 815.433 99.0351 815.433 101.555Z" fill="#FA9E13"/>
<path d="M409.164 102.205C409.164 100.362 410.482 98.7954 412.289 98.4142C419.473 96.9106 428.635 96 438.349 96C457.33 96 470.955 100.595 480.691 109.575C494.082 121.455 502.351 142.78 502.351 175.499C502.351 210.653 493.593 232.465 480.946 244.579C469.999 255.718 454.184 261.309 433.013 261.309C425.616 261.309 418.219 260.652 412.586 260.017C410.631 259.805 409.185 258.153 409.185 256.184V102.205H409.164ZM434.948 236.066C434.948 238.12 436.563 239.835 438.604 239.92C439.582 239.962 440.496 239.962 441.282 239.962C459.031 239.962 475.589 224.926 475.589 175.245C475.589 138.164 464.876 116.817 442.494 116.817C441.091 116.817 439.688 116.881 438.349 117.029C436.393 117.219 434.948 118.914 434.948 120.862V236.066Z" fill="#FA9E13"/>
<path d="M584.594 185.694H553.411C551.264 185.694 549.543 187.431 549.543 189.548V233.703C549.543 235.842 551.286 237.557 553.411 237.557H589.95C592.097 237.557 593.819 239.293 593.819 241.411V256.235C593.819 258.374 592.076 260.089 589.95 260.089H527.372C525.226 260.089 523.504 258.353 523.504 256.235V100.583C523.504 98.4444 525.247 96.729 527.372 96.729H587.017C589.164 96.729 590.886 98.4655 590.886 100.583V115.407C590.886 117.546 589.143 119.261 587.017 119.261H553.39C551.243 119.261 549.521 120.998 549.521 123.116V160.239C549.521 162.378 551.264 164.093 553.39 164.093H584.573C586.719 164.093 588.441 165.83 588.441 167.948V181.798C588.441 183.936 586.698 185.652 584.573 185.652L584.594 185.694Z" fill="#FA9E13"/>
<path d="M618.856 96.729H637.136C639.283 96.729 641.004 98.4655 641.004 100.583V234.423C641.004 236.562 642.747 238.277 644.873 238.277H680.923C683.07 238.277 684.792 240.014 684.792 242.131V256.235C684.792 258.374 683.049 260.089 680.923 260.089H618.834C616.688 260.089 614.966 258.353 614.966 256.235V100.583C614.966 98.4444 616.709 96.729 618.834 96.729H618.856Z" fill="#FA9E13"/>
<path d="M707.431 96.729H767.076C769.223 96.729 770.944 98.4655 770.944 100.583V115.407C770.944 117.546 769.201 119.261 767.076 119.261H733.449C731.302 119.261 729.58 120.998 729.58 123.116V164.136C729.58 166.275 731.323 167.99 733.449 167.99H764.397C766.544 167.99 768.266 169.727 768.266 171.844V185.694C768.266 187.833 766.523 189.548 764.397 189.548H733.449C731.302 189.548 729.58 191.285 729.58 193.403V256.235C729.58 258.374 727.837 260.089 725.711 260.089H707.431C705.284 260.089 703.562 258.353 703.562 256.235V100.583C703.562 98.4444 705.305 96.729 707.431 96.729Z" fill="#FA9E13"/>
<path d="M869.466 221.06L862.196 256.51C861.771 258.607 859.9 260.111 857.754 260.111H841.812C838.921 260.111 836.753 257.442 837.39 254.605L871.868 100.266C872.335 98.1902 874.163 96.729 876.289 96.729H899.373C901.52 96.729 903.369 98.2326 903.816 100.329L935.763 254.668C936.337 257.463 934.19 260.089 931.321 260.089H915.272C913.126 260.089 911.255 258.586 910.83 256.489L903.56 221.039C903.135 218.942 901.265 217.439 899.118 217.439H873.908C871.761 217.439 869.891 218.942 869.466 221.039V221.06ZM894.718 197.342C897.545 197.342 899.671 194.8 899.182 192.026L893.336 159.773C891.381 149.1 889.191 134.085 887.257 122.692H886.534C884.834 134.085 882.389 149.587 880.455 159.773L874.206 191.963C873.674 194.758 875.8 197.342 878.648 197.342H894.739H894.718Z" fill="#FA9E13"/>
<path d="M914.638 287.118C918.421 287.118 921.673 287.733 924.33 288.961C926.987 290.189 929.177 291.926 930.898 294.15C932.62 296.373 933.874 298.999 934.682 302.028C935.489 305.056 935.894 308.359 935.894 311.959V314.098H935.847V314.481C935.847 315.194 935.266 315.773 934.55 315.773H930.873C930.157 315.773 929.576 315.194 929.576 314.481V310.372C929.576 310.299 929.583 310.227 929.595 310.157C929.52 308.038 929.274 306.062 928.836 304.23C928.326 302.006 927.455 300.057 926.265 298.406C925.074 296.754 923.522 295.441 921.631 294.489C919.739 293.557 917.443 293.07 914.786 293.07C909.366 293.07 905.539 294.806 903.308 298.258C901.076 301.71 899.949 306.093 899.949 311.408C899.949 315.474 900.821 318.926 902.585 321.764C904.349 324.602 906.581 327.185 909.28 329.515C911.98 331.823 914.892 334.047 917.975 336.186C921.057 338.303 923.968 340.634 926.668 343.154C929.367 345.674 931.621 348.532 933.364 351.751C935.128 354.97 936 358.846 936 363.399C936 366.999 935.596 370.302 934.788 373.352C933.98 376.38 932.683 379.006 930.94 381.23C929.176 383.453 926.945 385.19 924.245 386.418C921.546 387.646 918.272 388.26 914.467 388.26C910.662 388.26 907.41 387.646 904.711 386.418C902.011 385.19 899.758 383.475 898.015 381.23C896.25 379.006 894.976 376.38 894.168 373.352C893.36 370.324 892.956 366.999 892.956 363.399V358.211C892.956 357.498 893.536 356.92 894.252 356.92H897.93C898.646 356.92 899.226 357.498 899.227 358.211V363.843C899.227 369.158 900.374 373.521 902.648 376.973C904.923 380.425 908.813 382.161 914.34 382.161C919.866 382.161 923.756 380.425 926.03 376.973C928.305 373.521 929.453 369.137 929.453 363.843C929.453 359.862 928.56 356.452 926.817 353.615C925.074 350.777 922.821 348.193 920.121 345.885C917.422 343.556 914.51 341.353 911.428 339.278C908.346 337.202 905.434 334.894 902.734 332.395C900.035 329.896 897.781 326.995 896.017 323.734C894.252 320.451 893.381 316.512 893.381 311.874C893.381 304.399 895.082 298.427 898.44 293.98C901.799 289.533 907.219 287.245 914.616 287.16L914.638 287.118ZM546.804 287.118C550.608 287.118 553.903 287.753 556.709 289.045C559.515 290.316 561.81 292.074 563.617 294.297C565.424 296.521 566.763 299.189 567.613 302.26C568.464 305.331 568.91 308.677 568.91 312.277V363.123C568.91 366.723 568.485 370.069 567.613 373.14C566.763 376.211 565.424 378.858 563.617 381.081C561.81 383.305 559.493 385.063 556.709 386.333C553.903 387.604 550.608 388.24 546.804 388.24C542.999 388.239 539.725 387.604 536.962 386.333C534.199 385.041 531.946 383.305 530.182 381.081C528.417 378.858 527.121 376.211 526.271 373.14C525.399 370.069 524.974 366.723 524.974 363.123V312.277C524.974 308.677 525.399 305.331 526.271 302.26C527.121 299.189 528.439 296.521 530.182 294.297C531.925 292.074 534.199 290.316 536.962 289.045C539.725 287.753 542.999 287.118 546.804 287.118ZM669.402 287.118C673.207 287.118 676.502 287.754 679.308 289.045C682.113 290.316 684.431 292.074 686.237 294.297C688.044 296.521 689.383 299.189 690.233 302.26C691.084 305.331 691.509 308.677 691.509 312.277V363.123C691.509 366.723 691.084 370.069 690.233 373.14C689.383 376.211 688.044 378.858 686.237 381.081C684.431 383.305 682.113 385.063 679.308 386.333C676.502 387.604 673.207 388.24 669.402 388.24C665.598 388.239 662.325 387.604 659.562 386.333C656.798 385.041 654.545 383.305 652.802 381.081C651.038 378.858 649.741 376.211 648.869 373.14C648.019 370.069 647.594 366.723 647.594 363.123V312.277C647.594 308.677 648.019 305.331 648.869 302.26C649.719 299.189 651.038 296.521 652.802 294.297C654.566 292.074 656.82 290.316 659.562 289.045C662.325 287.754 665.598 287.118 669.402 287.118ZM447.133 287.989C447.807 288.023 448.343 288.576 448.343 289.256V292.687C448.343 293.367 447.807 293.919 447.133 293.953V293.957H418.607C417.035 293.957 415.759 295.228 415.759 296.795V333.601C415.759 335.168 417.034 336.439 418.607 336.439H437.566C437.588 336.438 437.61 336.436 437.632 336.436H441.798C442.502 336.436 443.073 337.005 443.073 337.706V341.137C443.073 341.839 442.502 342.407 441.798 342.407H437.632C437.563 342.407 437.495 342.4 437.429 342.39H418.607C417.034 342.39 415.759 343.661 415.759 345.228V385.613H415.732V386.109C415.732 386.834 415.142 387.422 414.414 387.422H410.481C409.754 387.422 409.164 386.834 409.164 386.109V382.043C409.164 381.953 409.173 381.864 409.19 381.779V290.823C409.19 289.256 410.466 287.986 412.039 287.986H447.133V287.989ZM792.61 287.973C796.415 287.973 799.71 288.566 802.516 289.752C805.321 290.938 807.617 292.611 809.424 294.792C811.231 296.973 812.57 299.578 813.42 302.607C814.27 305.635 814.717 309.002 814.717 312.687V362.686C814.717 366.392 814.291 369.739 813.42 372.767C812.57 375.795 811.23 378.399 809.424 380.58C807.617 382.762 805.3 384.435 802.516 385.621C799.71 386.807 796.415 387.4 792.61 387.4H773.501C771.928 387.4 770.652 386.129 770.652 384.562V290.789C770.653 289.222 771.928 287.952 773.501 287.952H792.61V287.973ZM546.804 293.112C541.299 293.112 537.366 294.891 535.028 298.427C532.711 301.985 531.542 306.454 531.542 311.854V363.547C531.542 368.947 532.711 373.415 535.028 376.973C537.366 380.531 541.277 382.31 546.804 382.31C552.33 382.31 556.284 380.531 558.707 376.973C561.13 373.415 562.342 368.947 562.342 363.547V311.854C562.342 306.454 561.13 301.985 558.707 298.427C556.284 294.869 552.309 293.112 546.804 293.112ZM669.424 293.112C663.919 293.112 659.987 294.891 657.648 298.427C655.31 301.985 654.162 306.454 654.162 311.854V363.547C654.162 368.947 655.31 373.415 657.648 376.973C659.965 380.531 663.897 382.31 669.424 382.31C674.95 382.31 678.904 380.531 681.327 376.973C683.75 373.415 684.962 368.947 684.962 363.547V311.854C684.962 306.454 683.75 301.985 681.327 298.427C678.904 294.869 674.929 293.112 669.424 293.112ZM780.048 293.988C778.475 293.988 777.199 295.258 777.199 296.825V378.654C777.199 380.221 778.475 381.491 780.048 381.491H792.461V381.449C798.073 381.449 802.09 379.754 804.514 376.345C806.937 372.936 808.148 368.489 808.148 363.004V312.433C808.148 306.948 806.916 302.501 804.429 299.091C801.942 295.682 797.966 293.988 792.461 293.988H780.048Z" fill="white"/>
<path d="M914.638 287.118L914.638 284.814C913.773 284.814 912.98 285.299 912.586 286.069L914.638 287.118ZM924.33 288.961L925.297 286.869V286.869L924.33 288.961ZM930.898 294.15L932.721 292.739L932.721 292.739L930.898 294.15ZM934.682 302.028L936.908 301.434V301.434L934.682 302.028ZM935.894 314.098V316.402C937.166 316.402 938.198 315.371 938.198 314.098H935.894ZM935.847 314.098V311.793C934.574 311.793 933.542 312.825 933.542 314.098H935.847ZM929.576 310.372L927.272 310.371V310.372H929.576ZM929.595 310.157L931.867 310.54C931.893 310.387 931.903 310.232 931.898 310.076L929.595 310.157ZM928.836 304.23L926.59 304.745C926.591 304.752 926.593 304.759 926.595 304.765L928.836 304.23ZM926.265 298.406L928.134 297.058V297.058L926.265 298.406ZM921.631 294.489L922.668 292.43C922.661 292.427 922.655 292.424 922.649 292.421L921.631 294.489ZM914.786 293.07V290.765V290.765V293.07ZM903.308 298.258L901.372 297.007L901.372 297.007L903.308 298.258ZM899.949 311.408L897.645 311.408V311.408H899.949ZM902.585 321.764L900.628 322.981V322.981L902.585 321.764ZM909.28 329.515L907.775 331.26L907.783 331.266L909.28 329.515ZM917.975 336.186L916.661 338.079L916.67 338.085L917.975 336.186ZM926.668 343.154L928.241 341.469L928.24 341.469L926.668 343.154ZM933.364 351.751L931.338 352.849L931.343 352.859L933.364 351.751ZM936 363.399L938.304 363.399V363.399H936ZM934.788 373.352L937.015 373.946L937.016 373.942L934.788 373.352ZM930.94 381.23L932.746 382.662L932.754 382.651L930.94 381.23ZM924.245 386.418L925.199 388.516V388.516L924.245 386.418ZM914.467 388.26L914.467 390.564H914.467V388.26ZM904.711 386.418L903.757 388.516L903.757 388.516L904.711 386.418ZM898.015 381.23L899.835 379.816C899.83 379.81 899.825 379.804 899.82 379.797L898.015 381.23ZM894.168 373.352L891.941 373.946V373.946L894.168 373.352ZM892.956 363.399H890.652V363.399L892.956 363.399ZM892.956 358.211L890.652 358.211V358.211H892.956ZM894.252 356.92V354.616H894.251L894.252 356.92ZM897.93 356.92L897.93 354.616H897.93V356.92ZM899.227 358.211H901.531V358.211L899.227 358.211ZM902.648 376.973L900.724 378.241L900.724 378.241L902.648 376.973ZM914.34 382.161V384.466V384.466V382.161ZM926.03 376.973L927.955 378.241L927.955 378.241L926.03 376.973ZM929.453 363.843H931.758V363.843L929.453 363.843ZM926.817 353.615L928.781 352.408V352.408L926.817 353.615ZM920.121 345.885L918.616 347.63L918.623 347.636L920.121 345.885ZM911.428 339.278L912.715 337.366V337.366L911.428 339.278ZM902.734 332.395L901.169 334.086V334.086L902.734 332.395ZM896.017 323.734L893.987 324.825L893.99 324.83L896.017 323.734ZM893.381 311.874L891.076 311.874V311.874H893.381ZM898.44 293.98L896.601 292.591V292.591L898.44 293.98ZM914.616 287.16L914.643 289.465C915.498 289.455 916.278 288.972 916.668 288.21L914.616 287.16ZM546.804 287.118V284.814H546.804L546.804 287.118ZM556.709 289.045L555.745 291.138C555.75 291.14 555.754 291.142 555.758 291.144L556.709 289.045ZM563.617 294.297L565.406 292.844L565.406 292.844L563.617 294.297ZM567.613 302.26L569.834 301.645V301.645L567.613 302.26ZM568.91 312.277H571.215V312.277L568.91 312.277ZM568.91 363.123L571.215 363.123V363.123H568.91ZM567.613 373.14L565.396 372.511C565.395 372.515 565.394 372.52 565.392 372.525L567.613 373.14ZM563.617 381.081L565.406 382.535V382.535L563.617 381.081ZM556.709 386.333L557.66 388.432L557.666 388.43L556.709 386.333ZM546.804 388.24L546.804 390.544H546.804V388.24ZM536.962 386.333L535.986 388.421C535.99 388.423 535.995 388.425 535.999 388.427L536.962 386.333ZM530.182 381.081L528.376 382.514V382.514L530.182 381.081ZM526.271 373.14L528.491 372.525C528.49 372.52 528.489 372.515 528.487 372.511L526.271 373.14ZM524.974 363.123H522.669V363.123L524.974 363.123ZM524.974 312.277L522.669 312.277V312.277H524.974ZM526.271 302.26L528.487 302.889C528.489 302.884 528.49 302.88 528.491 302.875L526.271 302.26ZM530.182 294.297L528.368 292.875L528.368 292.875L530.182 294.297ZM536.962 289.045L537.925 291.139C537.929 291.137 537.933 291.135 537.938 291.133L536.962 289.045ZM669.402 287.118V284.814H669.402L669.402 287.118ZM679.308 289.045L678.344 291.138C678.348 291.14 678.353 291.142 678.357 291.144L679.308 289.045ZM686.237 294.297L688.026 292.844L688.026 292.844L686.237 294.297ZM690.233 302.26L692.454 301.645V301.645L690.233 302.26ZM691.509 312.277H693.813V312.277L691.509 312.277ZM691.509 363.123L693.813 363.123V363.123H691.509ZM690.233 373.14L692.454 373.755V373.755L690.233 373.14ZM686.237 381.081L688.026 382.535L688.026 382.535L686.237 381.081ZM679.308 386.333L680.258 388.432L680.258 388.432L679.308 386.333ZM669.402 388.24L669.402 390.544H669.402V388.24ZM659.562 386.333L658.586 388.421C658.59 388.423 658.594 388.425 658.599 388.427L659.562 386.333ZM652.802 381.081L654.615 379.66L654.607 379.649L652.802 381.081ZM648.869 373.14L646.648 373.755C646.65 373.76 646.651 373.764 646.652 373.769L648.869 373.14ZM647.594 363.123H645.289V363.123L647.594 363.123ZM647.594 312.277L645.289 312.277V312.277H647.594ZM648.869 302.26L646.648 301.645V301.645L648.869 302.26ZM652.802 294.297L650.997 292.865L650.997 292.865L652.802 294.297ZM659.562 289.045L660.53 291.136L660.537 291.133L659.562 289.045ZM447.133 287.989H444.828C444.828 289.216 445.791 290.228 447.017 290.29L447.133 287.989ZM448.343 289.256H450.647V289.256L448.343 289.256ZM447.133 293.953L447.017 291.652C445.791 291.714 444.828 292.726 444.828 293.953H447.133ZM447.133 293.957V296.262C448.406 296.262 449.437 295.23 449.437 293.957H447.133ZM415.759 296.795L413.454 296.795V296.795H415.759ZM437.566 336.439V338.743C437.605 338.743 437.644 338.742 437.683 338.74L437.566 336.439ZM437.632 336.436V334.131H437.632L437.632 336.436ZM443.073 341.137L445.378 341.137V341.137H443.073ZM437.632 342.407L437.632 344.712H437.632V342.407ZM437.429 342.39L437.792 340.114C437.672 340.095 437.55 340.085 437.429 340.085V342.39ZM415.759 385.613V387.917C417.031 387.917 418.063 386.885 418.063 385.613H415.759ZM415.732 385.613V383.308C414.46 383.308 413.428 384.34 413.428 385.613H415.732ZM410.481 387.422L410.481 389.727H410.481V387.422ZM409.19 381.779L411.448 382.241C411.479 382.089 411.495 381.934 411.495 381.779H409.19ZM412.039 287.986V285.681H412.039L412.039 287.986ZM447.133 287.986H449.437C449.437 286.713 448.406 285.681 447.133 285.681V287.986ZM792.61 287.973H790.306C790.306 289.246 791.338 290.277 792.61 290.277L792.61 287.973ZM802.516 289.752L803.413 287.63L803.413 287.63L802.516 289.752ZM809.424 294.792L811.199 293.322L811.199 293.322L809.424 294.792ZM813.42 302.607L815.639 301.984V301.984L813.42 302.607ZM814.717 312.687H817.021V312.687L814.717 312.687ZM813.42 372.767L811.205 372.13C811.204 372.134 811.203 372.139 811.201 372.144L813.42 372.767ZM809.424 380.58L811.199 382.05L811.199 382.05L809.424 380.58ZM802.516 385.621L803.413 387.744L803.419 387.741L802.516 385.621ZM792.61 387.4V389.704H792.61L792.61 387.4ZM770.652 290.789L768.348 290.789V290.789H770.652ZM792.61 287.952H794.915C794.915 286.68 793.883 285.648 792.61 285.648V287.952ZM546.804 293.112V290.807H546.804L546.804 293.112ZM535.028 298.427L533.106 297.156C533.103 297.161 533.1 297.165 533.097 297.169L535.028 298.427ZM531.542 363.547H529.238V363.547L531.542 363.547ZM535.028 376.973L533.097 378.23L533.103 378.239L535.028 376.973ZM546.804 382.31L546.804 384.614H546.804V382.31ZM558.707 376.973L560.612 378.27L560.612 378.27L558.707 376.973ZM562.342 363.547L564.646 363.547V363.547H562.342ZM558.707 298.427L560.612 297.13L560.612 297.13L558.707 298.427ZM669.424 293.112V290.807V290.807V293.112ZM657.648 298.427L655.726 297.156L655.723 297.161L657.648 298.427ZM654.162 363.547H651.858V363.547L654.162 363.547ZM657.648 376.973L659.579 375.715L659.574 375.707L657.648 376.973ZM669.424 382.31V384.614V384.614V382.31ZM681.327 376.973L683.232 378.27V378.27L681.327 376.973ZM684.962 363.547L687.266 363.547V363.547H684.962ZM681.327 298.427L683.232 297.13L683.232 297.13L681.327 298.427ZM792.461 381.491V383.796C793.734 383.796 794.765 382.764 794.765 381.491H792.461ZM792.461 381.449V379.145C791.188 379.145 790.156 380.177 790.156 381.449H792.461ZM804.514 376.345L806.392 377.68L806.392 377.68L804.514 376.345ZM808.148 363.004L810.453 363.004V363.004H808.148ZM804.429 299.091L806.29 297.733V297.733L804.429 299.091ZM914.638 287.118L914.638 289.423C918.184 289.423 921.086 290 923.363 291.053L924.33 288.961L925.297 286.869C922.26 285.465 918.658 284.814 914.638 284.814L914.638 287.118ZM924.33 288.961L923.363 291.053C925.694 292.131 927.588 293.638 929.076 295.561L930.898 294.15L932.721 292.739C930.766 290.215 928.28 288.248 925.297 286.869L924.33 288.961ZM930.898 294.15L929.076 295.56C930.587 297.511 931.716 299.85 932.455 302.621L934.682 302.028L936.908 301.434C936.032 298.148 934.653 295.235 932.721 292.739L930.898 294.15ZM934.682 302.028L932.455 302.621C933.204 305.43 933.589 308.532 933.589 311.959H935.894H938.198C938.198 308.187 937.774 304.681 936.908 301.434L934.682 302.028ZM935.894 311.959H933.589V314.098H935.894H938.198V311.959H935.894ZM935.894 314.098V311.793H935.847V314.098V316.402H935.894V314.098ZM935.847 314.098H933.542V314.481H935.847H938.151V314.098H935.847ZM935.847 314.481H933.542C933.542 313.913 934.001 313.468 934.55 313.468V315.773V318.077C936.53 318.077 938.151 316.475 938.151 314.481H935.847ZM934.55 315.773V313.468H930.873V315.773V318.077H934.55V315.773ZM930.873 315.773V313.468C931.421 313.468 931.881 313.913 931.881 314.481H929.576H927.272C927.272 316.475 928.892 318.077 930.873 318.077V315.773ZM929.576 314.481H931.881V310.372H929.576H927.272V314.481H929.576ZM929.576 310.372L931.881 310.373C931.881 310.441 931.874 310.498 931.867 310.54L929.595 310.157L927.322 309.775C927.292 309.957 927.272 310.157 927.272 310.371L929.576 310.372ZM929.595 310.157L931.898 310.076C931.819 307.83 931.557 305.699 931.077 303.694L928.836 304.23L926.595 304.765C926.991 306.424 927.222 308.245 927.292 310.238L929.595 310.157ZM928.836 304.23L931.082 303.714C930.509 301.216 929.519 298.98 928.134 297.058L926.265 298.406L924.395 299.753C925.391 301.135 926.143 302.796 926.59 304.745L928.836 304.23ZM926.265 298.406L928.134 297.058C926.719 295.094 924.876 293.543 922.668 292.43L921.631 294.489L920.594 296.547C922.168 297.34 923.43 298.413 924.395 299.753L926.265 298.406ZM921.631 294.489L922.649 292.421C920.378 291.303 917.719 290.765 914.786 290.765V293.07V295.374C917.167 295.374 919.1 295.811 920.613 296.556L921.631 294.489ZM914.786 293.07V290.765C908.858 290.765 904.159 292.697 901.372 297.007L903.308 298.258L905.243 299.509C906.92 296.915 909.874 295.374 914.786 295.374V293.07ZM903.308 298.258L901.372 297.007C898.84 300.924 897.645 305.774 897.645 311.408L899.949 311.408L902.254 311.408C902.254 306.413 903.312 302.496 905.243 299.509L903.308 298.258ZM899.949 311.408H897.645C897.645 315.806 898.59 319.702 900.628 322.981L902.585 321.764L904.542 320.547C903.052 318.15 902.254 315.143 902.254 311.408H899.949ZM902.585 321.764L900.628 322.981C902.523 326.029 904.911 328.788 907.775 331.26L909.28 329.515L910.786 327.77C908.251 325.583 906.175 323.174 904.542 320.547L902.585 321.764ZM909.28 329.515L907.783 331.266C910.548 333.631 913.523 335.902 916.661 338.079L917.975 336.186L919.288 334.293C916.262 332.192 913.411 330.015 910.778 327.763L909.28 329.515ZM917.975 336.186L916.67 338.085C919.66 340.14 922.482 342.398 925.095 344.838L926.668 343.154L928.24 341.469C925.455 338.869 922.453 336.467 919.28 334.286L917.975 336.186ZM926.668 343.154L925.095 344.838C927.625 347.199 929.721 349.863 931.338 352.849L933.364 351.751L935.391 350.654C933.522 347.202 931.11 344.148 928.241 341.469L926.668 343.154ZM933.364 351.751L931.343 352.859C932.88 355.663 933.696 359.138 933.696 363.399H936H938.304C938.304 358.554 937.376 354.277 935.385 350.644L933.364 351.751ZM936 363.399L933.696 363.399C933.696 366.826 933.311 369.929 932.56 372.762L934.788 373.352L937.016 373.942C937.881 370.676 938.304 367.172 938.304 363.399L936 363.399ZM934.788 373.352L932.561 372.758C931.828 375.508 930.664 377.847 929.127 379.808L930.94 381.23L932.754 382.651C934.703 380.165 936.133 377.252 937.015 373.946L934.788 373.352ZM930.94 381.23L929.135 379.797C927.605 381.726 925.669 383.239 923.291 384.321L924.245 386.418L925.199 388.516C928.22 387.141 930.747 385.181 932.746 382.662L930.94 381.23ZM924.245 386.418L923.291 384.321C920.965 385.379 918.035 385.956 914.467 385.956V388.26V390.564C918.509 390.564 922.126 389.914 925.199 388.516L924.245 386.418ZM914.467 388.26L914.467 385.956C910.902 385.956 907.993 385.38 905.665 384.321L904.711 386.418L903.757 388.516C906.828 389.913 910.423 390.564 914.467 390.564L914.467 388.26ZM904.711 386.418L905.665 384.321C903.271 383.231 901.327 381.738 899.835 379.816L898.015 381.23L896.194 382.643C898.189 385.211 900.752 387.149 903.757 388.516L904.711 386.418ZM898.015 381.23L899.82 379.797C898.275 377.85 897.131 375.518 896.395 372.758L894.168 373.352L891.941 373.946C892.821 377.242 894.226 380.162 896.209 382.662L898.015 381.23ZM894.168 373.352L896.395 372.758C895.646 369.95 895.26 366.828 895.26 363.399L892.956 363.399L890.652 363.399C890.652 367.17 891.075 370.697 891.941 373.946L894.168 373.352ZM892.956 363.399H895.26V358.211H892.956H890.652V363.399H892.956ZM892.956 358.211L895.26 358.212C895.26 358.779 894.801 359.224 894.253 359.225L894.252 356.92L894.251 354.616C892.272 354.616 890.652 356.217 890.652 358.211L892.956 358.211ZM894.252 356.92V359.225H897.93V356.92V354.616H894.252V356.92ZM897.93 356.92L897.93 359.225C897.383 359.225 896.922 358.781 896.922 358.212L899.227 358.211L901.531 358.211C901.53 356.215 899.908 354.616 897.93 354.616L897.93 356.92ZM899.227 358.211H896.922V363.843H899.227H901.531V358.211H899.227ZM899.227 363.843H896.922C896.922 369.487 898.143 374.322 900.724 378.241L902.648 376.973L904.573 375.705C902.606 372.72 901.531 368.829 901.531 363.843H899.227ZM902.648 376.973L900.724 378.241C903.56 382.545 908.322 384.466 914.34 384.466V382.161V379.857C909.305 379.857 906.285 378.304 904.573 375.705L902.648 376.973ZM914.34 382.161V384.466C920.358 384.466 925.119 382.545 927.955 378.241L926.03 376.973L924.106 375.705C922.393 378.304 919.374 379.857 914.34 379.857V382.161ZM926.03 376.973L927.955 378.241C930.537 374.322 931.758 369.466 931.758 363.843H929.453H927.149C927.149 368.809 926.073 372.72 924.106 375.705L926.03 376.973ZM929.453 363.843L931.758 363.843C931.758 359.51 930.782 355.667 928.781 352.408L926.817 353.615L924.854 354.821C926.338 357.237 927.149 360.214 927.149 363.843L929.453 363.843ZM926.817 353.615L928.781 352.408C926.9 349.346 924.482 346.582 921.619 344.134L920.121 345.885L918.623 347.636C921.159 349.804 923.249 352.208 924.854 354.821L926.817 353.615ZM920.121 345.885L921.627 344.14C918.851 341.745 915.865 339.487 912.715 337.366L911.428 339.278L910.141 341.189C913.154 343.218 915.992 345.366 918.616 347.63L920.121 345.885ZM911.428 339.278L912.715 337.366C909.731 335.357 906.913 333.122 904.3 330.704L902.734 332.395L901.169 334.086C903.955 336.665 906.96 339.047 910.141 341.189L911.428 339.278ZM902.734 332.395L904.3 330.704C901.786 328.376 899.688 325.676 898.043 322.637L896.017 323.734L893.99 324.83C895.874 328.314 898.284 331.415 901.169 334.086L902.734 332.395ZM896.017 323.734L898.046 322.643C896.502 319.77 895.685 316.225 895.685 311.874H893.381H891.076C891.076 316.799 892.003 321.133 893.987 324.825L896.017 323.734ZM893.381 311.874L895.685 311.874C895.685 304.736 897.309 299.302 900.279 295.368L898.44 293.98L896.601 292.591C892.855 297.552 891.076 304.062 891.076 311.874L893.381 311.874ZM898.44 293.98L900.279 295.369C903.076 291.665 907.708 289.544 914.643 289.465L914.616 287.16L914.59 284.856C906.731 284.946 900.521 287.4 896.601 292.591L898.44 293.98ZM914.616 287.16L916.668 288.21L916.689 288.168L914.638 287.118L912.586 286.069L912.565 286.111L914.616 287.16ZM546.804 287.118V289.423C550.355 289.423 553.307 290.016 555.745 291.138L556.709 289.045L557.673 286.952C554.5 285.491 550.861 284.814 546.804 284.814V287.118ZM556.709 289.045L555.758 291.144C558.256 292.275 560.259 293.819 561.829 295.75L563.617 294.297L565.406 292.844C563.362 290.329 560.774 288.356 557.66 286.946L556.709 289.045ZM563.617 294.297L561.829 295.75C563.414 297.701 564.617 300.076 565.392 302.875L567.613 302.26L569.834 301.645C568.909 298.303 567.434 295.34 565.406 292.844L563.617 294.297ZM567.613 302.26L565.392 302.875C566.183 305.73 566.606 308.868 566.606 312.277L568.91 312.277L571.215 312.277C571.215 308.486 570.744 304.932 569.834 301.645L567.613 302.26ZM568.91 312.277H566.606V363.123H568.91H571.215V312.277H568.91ZM568.91 363.123L566.606 363.123C566.606 366.543 566.202 369.674 565.396 372.511L567.613 373.14L569.83 373.769C570.768 370.465 571.215 366.904 571.215 363.123L568.91 363.123ZM567.613 373.14L565.392 372.525C564.619 375.319 563.417 377.674 561.829 379.628L563.617 381.081L565.406 382.535C567.431 380.042 568.907 377.102 569.834 373.755L567.613 373.14ZM563.617 381.081L561.829 379.628C560.263 381.556 558.239 383.102 555.752 384.237L556.709 386.333L557.666 388.43C560.748 387.023 563.358 385.054 565.406 382.535L563.617 381.081ZM556.709 386.333L555.758 384.234C553.312 385.342 550.355 385.935 546.804 385.935V388.24V390.544C550.862 390.544 554.494 389.866 557.66 388.432L556.709 386.333ZM546.804 388.24L546.804 385.935C543.251 385.935 540.321 385.341 537.925 384.24L536.962 386.333L535.999 388.427C539.129 389.866 542.746 390.544 546.804 390.544L546.804 388.24ZM536.962 386.333L537.938 384.246C535.468 383.091 533.509 381.568 531.987 379.649L530.182 381.081L528.376 382.514C530.382 385.042 532.929 386.992 535.986 388.421L536.962 386.333ZM530.182 381.081L531.987 379.649C530.44 377.699 529.271 375.34 528.491 372.525L526.271 373.14L524.05 373.755C524.971 377.081 526.395 380.016 528.376 382.514L530.182 381.081ZM526.271 373.14L528.487 372.511C527.682 369.674 527.278 366.543 527.278 363.123L524.974 363.123L522.669 363.123C522.669 366.904 523.116 370.465 524.054 373.769L526.271 373.14ZM524.974 363.123H527.278V312.277H524.974H522.669V363.123H524.974ZM524.974 312.277L527.278 312.277C527.278 308.857 527.682 305.726 528.487 302.889L526.271 302.26L524.054 301.631C523.116 304.935 522.669 308.496 522.669 312.277L524.974 312.277ZM526.271 302.26L528.491 302.875C529.269 300.065 530.459 297.678 531.995 295.719L530.182 294.297L528.368 292.875C526.418 295.363 524.972 298.313 524.05 301.645L526.271 302.26ZM530.182 294.297L531.995 295.719C533.494 293.807 535.466 292.269 537.925 291.139L536.962 289.045L535.999 286.951C532.931 288.362 530.356 290.34 528.368 292.875L530.182 294.297ZM536.962 289.045L537.938 291.133C540.326 290.016 543.25 289.423 546.804 289.423L546.804 287.118L546.804 284.814C542.747 284.814 539.124 285.491 535.986 286.958L536.962 289.045ZM669.402 287.118V289.423C672.954 289.423 675.905 290.016 678.344 291.138L679.308 289.045L680.271 286.952C677.099 285.491 673.46 284.814 669.402 284.814V287.118ZM679.308 289.045L678.357 291.144C680.861 292.278 682.884 293.824 684.449 295.75L686.237 294.297L688.026 292.844C685.978 290.323 683.366 288.353 680.258 286.946L679.308 289.045ZM686.237 294.297L684.449 295.75C686.034 297.701 687.238 300.076 688.013 302.875L690.233 302.26L692.454 301.645C691.529 298.303 690.054 295.34 688.026 292.844L686.237 294.297ZM690.233 302.26L688.013 302.875C688.801 305.721 689.204 308.857 689.204 312.277L691.509 312.277L693.813 312.277C693.813 308.496 693.367 304.941 692.454 301.645L690.233 302.26ZM691.509 312.277H689.204V363.123H691.509H693.813V312.277H691.509ZM691.509 363.123L689.204 363.123C689.204 366.543 688.801 369.679 688.013 372.525L690.233 373.14L692.454 373.755C693.367 370.459 693.813 366.904 693.813 363.123L691.509 363.123ZM690.233 373.14L688.013 372.525C687.239 375.319 686.037 377.674 684.449 379.628L686.237 381.081L688.026 382.535C690.051 380.042 691.527 377.102 692.454 373.755L690.233 373.14ZM686.237 381.081L684.449 379.628C682.884 381.555 680.861 383.1 678.357 384.234L679.308 386.333L680.258 388.432C683.366 387.025 685.978 385.055 688.026 382.535L686.237 381.081ZM679.308 386.333L678.357 384.234C675.911 385.342 672.953 385.935 669.402 385.935V388.24V390.544C673.461 390.544 677.093 389.866 680.258 388.432L679.308 386.333ZM669.402 388.24L669.402 385.935C665.85 385.935 662.921 385.341 660.524 384.24L659.562 386.333L658.599 388.427C661.729 389.866 665.345 390.544 669.402 390.544L669.402 388.24ZM659.562 386.333L660.537 384.246C658.066 383.09 656.112 381.569 654.615 379.66L652.802 381.081L650.988 382.503C652.977 385.041 655.53 386.992 658.586 388.421L659.562 386.333ZM652.802 381.081L654.607 379.649C653.059 377.699 651.888 375.336 651.086 372.511L648.869 373.14L646.652 373.769C647.593 377.085 649.016 380.017 650.997 382.514L652.802 381.081ZM648.869 373.14L651.09 372.525C650.302 369.679 649.898 366.543 649.898 363.123L647.594 363.123L645.289 363.123C645.289 366.904 645.736 370.459 646.648 373.755L648.869 373.14ZM647.594 363.123H649.898V312.277H647.594H645.289V363.123H647.594ZM647.594 312.277L649.898 312.277C649.898 308.857 650.302 305.721 651.09 302.875L648.869 302.26L646.648 301.645C645.736 304.941 645.289 308.496 645.289 312.277L647.594 312.277ZM648.869 302.26L651.09 302.875C651.868 300.066 653.057 297.683 654.607 295.729L652.802 294.297L650.997 292.865C649.018 295.358 647.571 298.313 646.648 301.645L648.869 302.26ZM652.802 294.297L654.607 295.729C656.136 293.802 658.097 292.263 660.53 291.136L659.562 289.045L658.593 286.954C655.542 288.368 652.996 290.345 650.997 292.865L652.802 294.297ZM659.562 289.045L660.537 291.133C662.926 290.016 665.849 289.423 669.402 289.423L669.402 287.118L669.402 284.814C665.346 284.814 661.723 285.491 658.586 286.958L659.562 289.045ZM447.133 287.989L447.017 290.29C446.482 290.263 446.038 289.821 446.038 289.256L448.343 289.256L450.647 289.256C450.647 287.332 449.132 285.782 447.249 285.687L447.133 287.989ZM448.343 289.256H446.038V292.687H448.343H450.647V289.256H448.343ZM448.343 292.687H446.038C446.038 292.119 446.484 291.679 447.017 291.652L447.133 293.953L447.249 296.255C449.129 296.16 450.647 294.614 450.647 292.687H448.343ZM447.133 293.953H444.828V293.957H447.133H449.437V293.953H447.133ZM447.133 293.957V291.653H418.607V293.957V296.262H447.133V293.957ZM418.607 293.957V291.653C415.77 291.653 413.454 293.947 413.454 296.795L415.759 296.795L418.063 296.795C418.063 296.509 418.299 296.262 418.607 296.262V293.957ZM415.759 296.795H413.454V333.601H415.759H418.063V296.795H415.759ZM415.759 333.601H413.454C413.454 336.449 415.77 338.743 418.607 338.743V336.439V334.134C418.299 334.134 418.063 333.887 418.063 333.601H415.759ZM418.607 336.439V338.743H437.566V336.439V334.134H418.607V336.439ZM437.566 336.439L437.683 338.74C437.7 338.739 437.715 338.738 437.721 338.738C437.73 338.738 437.727 338.738 437.725 338.738C437.721 338.738 437.71 338.739 437.695 338.739C437.68 338.74 437.658 338.74 437.632 338.74L437.632 336.436L437.632 334.131C437.559 334.131 437.501 334.134 437.473 334.136C437.46 334.137 437.447 334.137 437.445 334.137C437.44 334.138 437.444 334.138 437.45 334.137L437.566 336.439ZM437.632 336.436V338.74H441.798V336.436V334.131H437.632V336.436ZM441.798 336.436V338.74C441.238 338.74 440.769 338.286 440.769 337.706H443.073H445.378C445.378 335.723 443.766 334.131 441.798 334.131V336.436ZM443.073 337.706H440.769V341.137H443.073H445.378V337.706H443.073ZM443.073 341.137L440.769 341.137C440.769 340.558 441.238 340.103 441.798 340.103V342.407V344.712C443.767 344.712 445.378 343.12 445.378 341.137L443.073 341.137ZM441.798 342.407V340.103H437.632V342.407V344.712H441.798V342.407ZM437.632 342.407L437.632 340.103C437.717 340.103 437.775 340.112 437.792 340.114L437.429 342.39L437.065 344.665C437.215 344.689 437.409 344.712 437.632 344.712L437.632 342.407ZM437.429 342.39V340.085H418.607V342.39V344.694H437.429V342.39ZM418.607 342.39V340.085C415.77 340.085 413.454 342.38 413.454 345.228H415.759H418.063C418.063 344.942 418.299 344.694 418.607 344.694V342.39ZM415.759 345.228H413.454V385.613H415.759H418.063V345.228H415.759ZM415.759 385.613V383.308H415.732V385.613V387.917H415.759V385.613ZM415.732 385.613H413.428V386.109H415.732H418.037V385.613H415.732ZM415.732 386.109H413.428C413.428 385.553 413.877 385.118 414.414 385.118V387.422V389.727C416.407 389.727 418.037 388.115 418.037 386.109H415.732ZM414.414 387.422V385.118H410.481V387.422V389.727H414.414V387.422ZM410.481 387.422L410.482 385.118C411.02 385.118 411.469 385.554 411.469 386.109H409.164H406.86C406.86 388.113 408.488 389.726 410.481 389.727L410.481 387.422ZM409.164 386.109H411.469V382.043H409.164H406.86V386.109H409.164ZM409.164 382.043H411.469C411.469 382.103 411.463 382.169 411.448 382.241L409.19 381.779L406.933 381.316C406.883 381.559 406.86 381.803 406.86 382.043H409.164ZM409.19 381.779H411.495V290.823H409.19H406.886V381.779H409.19ZM409.19 290.823H411.495C411.495 290.537 411.731 290.29 412.039 290.29L412.039 287.986L412.039 285.681C409.202 285.681 406.886 287.975 406.886 290.823H409.19ZM412.039 287.986V290.29H447.133V287.986V285.681H412.039V287.986ZM447.133 287.986H444.828V287.989H447.133H449.437V287.986H447.133ZM792.61 287.973L792.61 290.277C796.18 290.277 799.157 290.834 801.618 291.875L802.516 289.752L803.413 287.63C800.263 286.298 796.65 285.668 792.61 285.668L792.61 287.973ZM802.516 289.752L801.618 291.875C804.111 292.928 806.097 294.388 807.649 296.262L809.424 294.792L811.199 293.322C809.137 290.834 806.531 288.948 803.413 287.63L802.516 289.752ZM809.424 294.792L807.649 296.262C809.232 298.173 810.43 300.482 811.201 303.23L813.42 302.607L815.639 301.984C814.709 298.675 813.229 295.774 811.199 293.322L809.424 294.792ZM813.42 302.607L811.201 303.23C811.988 306.032 812.412 309.187 812.412 312.687L814.717 312.687L817.021 312.687C817.021 308.817 816.552 305.238 815.639 301.984L813.42 302.607ZM814.717 312.687H812.412V362.686H814.717H817.021V312.687H814.717ZM814.717 362.686H812.412C812.412 366.217 812.007 369.344 811.205 372.13L813.42 372.767L815.634 373.404C816.576 370.133 817.021 366.567 817.021 362.686H814.717ZM813.42 372.767L811.201 372.144C810.43 374.891 809.232 377.2 807.649 379.11L809.424 380.58L811.199 382.05C813.229 379.599 814.709 376.699 815.639 373.39L813.42 372.767ZM809.424 380.58L807.649 379.11C806.1 380.981 804.094 382.445 801.613 383.501L802.516 385.621L803.419 387.741C806.507 386.426 809.134 384.542 811.199 382.05L809.424 380.58ZM802.516 385.621L801.618 383.499C799.157 384.539 796.18 385.095 792.61 385.095L792.61 387.4L792.61 389.704C796.65 389.704 800.262 389.076 803.413 387.744L802.516 385.621ZM792.61 387.4V385.095H773.501V387.4V389.704H792.61V387.4ZM773.501 387.4V385.095C773.192 385.095 772.957 384.848 772.957 384.562H770.652H768.348C768.348 387.41 770.664 389.704 773.501 389.704V387.4ZM770.652 384.562H772.957V290.789H770.652H768.348V384.562H770.652ZM770.652 290.789L772.957 290.79C772.957 290.504 773.192 290.257 773.501 290.257V287.952V285.648C770.664 285.648 768.348 287.941 768.348 290.789L770.652 290.789ZM773.501 287.952V290.257H792.61V287.952V285.648H773.501V287.952ZM792.61 287.952H790.306V287.973H792.61H794.915V287.952H792.61ZM546.804 293.112L546.804 290.807C540.781 290.807 535.995 292.786 533.106 297.156L535.028 298.427L536.951 299.698C538.738 296.995 541.816 295.416 546.804 295.416L546.804 293.112ZM535.028 298.427L533.097 297.169C530.48 301.188 529.238 306.123 529.238 311.854H531.542H533.846C533.846 306.785 534.942 302.782 536.959 299.685L535.028 298.427ZM531.542 311.854H529.238V363.547H531.542H533.846V311.854H531.542ZM531.542 363.547L529.238 363.547C529.238 369.278 530.481 374.212 533.097 378.23L535.028 376.973L536.959 375.715C534.942 372.618 533.846 368.616 533.846 363.547L531.542 363.547ZM535.028 376.973L533.103 378.239C535.99 382.632 540.757 384.614 546.804 384.614L546.804 382.31L546.804 380.005C541.798 380.005 538.743 378.429 536.954 375.707L535.028 376.973ZM546.804 382.31V384.614C552.855 384.614 557.641 382.632 560.612 378.27L558.707 376.973L556.802 375.676C554.927 378.429 551.806 380.005 546.804 380.005V382.31ZM558.707 376.973L560.612 378.27C563.354 374.244 564.646 369.293 564.646 363.547L562.342 363.547L560.037 363.547C560.037 368.601 558.906 372.587 556.802 375.676L558.707 376.973ZM562.342 363.547H564.646V311.854H562.342H560.037V363.547H562.342ZM562.342 311.854H564.646C564.646 306.108 563.354 301.157 560.612 297.13L558.707 298.427L556.802 299.724C558.906 302.813 560.037 306.799 560.037 311.854H562.342ZM558.707 298.427L560.612 297.13C557.636 292.761 552.823 290.807 546.804 290.807V293.112V295.416C551.795 295.416 554.932 296.978 556.802 299.724L558.707 298.427ZM669.424 293.112V290.807C663.401 290.807 658.615 292.786 655.726 297.156L657.648 298.427L659.571 299.698C661.358 296.995 664.436 295.416 669.424 295.416V293.112ZM657.648 298.427L655.723 297.161C653.076 301.189 651.858 306.131 651.858 311.854H654.162H656.467C656.467 306.776 657.545 302.781 659.574 299.693L657.648 298.427ZM654.162 311.854H651.858V363.547H654.162H656.467V311.854H654.162ZM654.162 363.547L651.858 363.547C651.858 369.27 653.076 374.211 655.723 378.239L657.648 376.973L659.574 375.707C657.545 372.619 656.467 368.624 656.467 363.547L654.162 363.547ZM657.648 376.973L655.717 378.23C658.587 382.636 663.384 384.614 669.424 384.614V382.31V380.005C664.411 380.005 661.344 378.425 659.579 375.715L657.648 376.973ZM669.424 382.31V384.614C675.475 384.614 680.261 382.632 683.232 378.27L681.327 376.973L679.423 375.676C677.547 378.429 674.426 380.005 669.424 380.005V382.31ZM681.327 376.973L683.232 378.27C685.974 374.244 687.266 369.293 687.266 363.547L684.962 363.547L682.657 363.547C682.657 368.601 681.526 372.587 679.423 375.676L681.327 376.973ZM684.962 363.547H687.266V311.854H684.962H682.657V363.547H684.962ZM684.962 311.854H687.266C687.266 306.108 685.974 301.157 683.232 297.13L681.327 298.427L679.423 299.724C681.526 302.813 682.657 306.799 682.657 311.854H684.962ZM681.327 298.427L683.232 297.13C680.256 292.761 675.443 290.807 669.424 290.807V293.112V295.416C674.416 295.416 677.552 296.978 679.423 299.724L681.327 298.427ZM780.048 293.988V291.683C777.21 291.683 774.895 293.977 774.895 296.825H777.199H779.504C779.504 296.539 779.739 296.292 780.048 296.292V293.988ZM777.199 296.825H774.895V378.654H777.199H779.504V296.825H777.199ZM777.199 378.654H774.895C774.895 381.502 777.21 383.796 780.048 383.796V381.491V379.187C779.739 379.187 779.504 378.94 779.504 378.654H777.199ZM780.048 381.491V383.796H792.461V381.491V379.187H780.048V381.491ZM792.461 381.491H794.765V381.449H792.461H790.156V381.491H792.461ZM792.461 381.449V383.754C798.536 383.754 803.395 381.896 806.392 377.68L804.514 376.345L802.635 375.01C800.786 377.613 797.609 379.145 792.461 379.145V381.449ZM804.514 376.345L806.392 377.68C809.167 373.775 810.453 368.819 810.453 363.004L808.148 363.004L805.844 363.004C805.844 368.158 804.706 372.096 802.635 375.01L804.514 376.345ZM808.148 363.004H810.453V312.433H808.148H805.844V363.004H808.148ZM808.148 312.433H810.453C810.453 306.61 809.142 301.643 806.29 297.733L804.429 299.091L802.567 300.449C804.689 303.358 805.844 307.286 805.844 312.433H808.148ZM804.429 299.091L806.29 297.733C803.242 293.554 798.455 291.683 792.461 291.683V293.988V296.292C797.477 296.292 800.641 297.809 802.567 300.449L804.429 299.091ZM792.461 293.988V291.683H780.048V293.988V296.292H792.461V293.988Z" fill="white"/>
</svg>
